<svg width="13" height="15" viewBox="0 0 13 15" fill="none" xmlns="http://www.w3.org/2000/svg">
<path fill-rule="evenodd" clip-rule="evenodd" d="M6.43371 1.29492C7.65895 1.29492 8.84855 1.70865 9.78651 2.45998V2.45995C11.0117 3.4408 11.7324 4.83545 11.8196 6.38601C11.903 7.91686 11.3309 9.41462 10.2506 10.495L6.66929 14.0294C6.53057 14.1669 6.28996 14.1657 6.15123 14.0282L2.62054 10.4975C1.53773 9.41471 0.964403 7.91573 1.04911 6.38604C1.13504 4.83554 1.85692 3.4409 3.08091 2.45998C4.01763 1.70865 5.2085 1.29492 6.43371 1.29492ZM4.02747 6.68454C4.02747 8.01165 5.10657 9.09078 6.43371 9.09078C7.76081 9.09078 8.84117 8.01168 8.83994 6.68454C8.83994 5.35744 7.76084 4.27831 6.43371 4.27831C5.1066 4.27831 4.02747 5.35741 4.02747 6.68454Z" fill="white"/>
<path d="M9.78651 2.45998L9.47391 2.85022L10.2865 3.50113V2.45998H9.78651ZM9.78651 2.45995L10.099 2.06962L9.28651 1.4192V2.45995H9.78651ZM11.8196 6.38601L12.3188 6.35878L12.3188 6.35794L11.8196 6.38601ZM10.2506 10.495L10.6018 10.8509L10.6041 10.8485L10.2506 10.495ZM6.66929 14.0294L6.31808 13.6736L6.31731 13.6743L6.66929 14.0294ZM6.15123 14.0282L5.79767 14.3818L5.79925 14.3833L6.15123 14.0282ZM2.62054 10.4975L2.97409 10.144L2.62054 10.4975ZM1.04911 6.38604L0.549878 6.35837L0.549877 6.35839L1.04911 6.38604ZM3.08091 2.45998L3.39359 2.85014L3.39375 2.85002L3.08091 2.45998ZM8.83994 6.68454H8.33994V6.68501L8.83994 6.68454ZM10.0991 2.06974C9.0707 1.24596 7.77034 0.794922 6.43371 0.794922V1.79492C7.54756 1.79492 8.6264 2.17133 9.47391 2.85022L10.0991 2.06974ZM9.28651 2.45995V2.45998H10.2865V2.45995H9.28651ZM12.3188 6.35794C12.2236 4.66439 11.4342 3.13848 10.099 2.06962L9.47403 2.85028C10.5893 3.74313 11.2412 5.0065 11.3203 6.41407L12.3188 6.35794ZM10.6041 10.8485C11.7853 9.66736 12.41 8.03101 12.3188 6.35878L11.3203 6.41323C11.3961 7.80272 10.8766 9.16188 9.89703 10.1414L10.6041 10.8485ZM7.02051 14.3853L10.6018 10.8509L9.89936 10.1391L6.31808 13.6736L7.02051 14.3853ZM5.79925 14.3833C6.13071 14.7119 6.6855 14.7174 7.02128 14.3846L6.31731 13.6743C6.35224 13.6397 6.38948 13.6319 6.41188 13.6319C6.43414 13.632 6.46972 13.6399 6.5032 13.6731L5.79925 14.3833ZM2.26699 10.8511L5.79767 14.3818L6.50478 13.6747L2.97409 10.144L2.26699 10.8511ZM0.549877 6.35839C0.4573 8.03015 1.08366 9.66775 2.26699 10.8511L2.97409 10.144C1.9918 9.16167 1.47151 7.8013 1.54835 6.41368L0.549877 6.35839ZM2.76822 2.06981C1.43469 3.13852 0.643758 4.66435 0.549878 6.35837L1.54835 6.4137C1.62632 5.00673 2.27915 3.74327 3.39359 2.85014L2.76822 2.06981ZM6.43371 0.794922C5.09729 0.794922 3.7955 1.24586 2.76806 2.06994L3.39375 2.85002C4.23977 2.17144 5.3197 1.79492 6.43371 1.79492V0.794922ZM6.43371 8.59078C5.38272 8.59078 4.52747 7.73551 4.52747 6.68454H3.52747C3.52747 8.28779 4.83043 9.59078 6.43371 9.59078V8.59078ZM8.33994 6.68501C8.34091 7.73521 7.48509 8.59078 6.43371 8.59078V9.59078C8.03653 9.59078 9.34142 8.28815 9.33994 6.68408L8.33994 6.68501ZM6.43371 4.77831C7.48469 4.77831 8.33994 5.63358 8.33994 6.68454H9.33994C9.33994 5.0813 8.03699 3.77831 6.43371 3.77831V4.77831ZM4.52747 6.68454C4.52747 5.63356 5.38274 4.77831 6.43371 4.77831V3.77831C4.83047 3.77831 3.52747 5.08126 3.52747 6.68454H4.52747Z" fill="black"/>
<path d="M6.4337 5.51172C5.78672 5.51172 5.26126 6.03717 5.26126 6.68416C5.26126 7.33115 5.78672 7.8566 6.4337 7.8566C7.08069 7.8566 7.60615 7.33115 7.60615 6.68416C7.60615 6.03717 7.08069 5.51172 6.4337 5.51172Z" fill="white"/>
</svg>
